<svg width="17" height="22" viewBox="0 0 17 22" fill="none" xmlns="http://www.w3.org/2000/svg">
<path d="M16.2675 22L8.78632 14.9453C8.60911 14.7786 8.37493 14.6857 8.1316 14.6857C7.88827 14.6857 7.65414 14.7786 7.47693 14.9453L0 21.9829V0.955412C-1.2538e-06 0.829587 0.0248198 0.705013 0.0731 0.588819C0.12138 0.472625 0.19214 0.367126 0.28131 0.278352C0.37048 0.189578 0.476306 0.11931 0.592714 0.0715476C0.709122 0.0237854 0.833848 -0.000552215 0.959672 9.5063e-06H15.3036C15.4294 -0.000552215 15.5541 0.0237854 15.6705 0.0715476C15.7869 0.11931 15.8927 0.189578 15.9819 0.278352C16.0711 0.367126 16.1418 0.472625 16.1901 0.588819C16.2384 0.705013 16.2633 0.829587 16.2632 0.955412L16.2675 22Z" fill="#008FF8"/>
</svg>
