<svg width="58" height="58" viewBox="0 0 58 58" fill="none" xmlns="http://www.w3.org/2000/svg">
<mask id="mask0_10_17347" style="mask-type:luminance" maskUnits="userSpaceOnUse" x="19" y="22" width="20" height="14">
<path d="M21.344 26.9989L19.72 28.652L26.796 35.612C27.0134 35.8281 27.3073 35.9493 27.6138 35.9493C27.9202 35.9493 28.2142 35.8281 28.4316 35.612L38.2916 23.6639L36.6502 22.0342L27.608 33.1643L21.344 26.9989Z" fill="white"/>
</mask>
<g mask="url(#mask0_10_17347)">
<mask id="mask1_10_17347" style="mask-type:luminance" maskUnits="userSpaceOnUse" x="-389" y="-166" width="613" height="724">
<path d="M223.88 -165.88H-388.6V557.96H223.88V-165.88Z" fill="white"/>
</mask>
<g mask="url(#mask1_10_17347)">
<path d="M44.0799 16.2402H13.9199V41.7602H44.0799V16.2402Z" fill="#34A853"/>
</g>
</g>
<mask id="mask2_10_17347" style="mask-type:luminance" maskUnits="userSpaceOnUse" x="5" y="5" width="48" height="48">
<path d="M29 49.8627C24.8704 49.8627 20.8335 48.6381 17.3998 46.3438C13.9661 44.0495 11.2898 40.7885 9.70946 36.9732C8.1291 33.1579 7.71562 28.9596 8.52128 24.9093C9.32694 20.859 11.3156 17.1385 14.2357 14.2184C17.1558 11.2983 20.8763 9.30963 24.9266 8.50397C28.9769 7.69831 33.1752 8.11179 36.9905 9.69215C40.8058 11.2725 44.0669 13.9488 46.3612 17.3825C48.6555 20.8162 49.8801 24.8531 49.8801 28.9827C49.8801 34.5205 47.6802 39.8314 43.7644 43.7471C39.8487 47.6629 34.5378 49.8627 29 49.8627ZM29 52.1827C33.5886 52.1827 38.074 50.8221 41.8893 48.2728C45.7045 45.7236 48.6781 42.1003 50.4341 37.861C52.19 33.6218 52.6495 28.957 51.7543 24.4567C50.8591 19.9563 48.6495 15.8224 45.4049 12.5778C42.1604 9.33327 38.0265 7.12368 33.5261 6.2285C29.0258 5.33333 24.361 5.79277 20.1218 7.54873C15.8825 9.30468 12.2592 12.2783 9.70995 16.0935C7.1607 19.9088 5.80005 24.3942 5.80005 28.9827C5.80005 35.1358 8.24431 41.0368 12.5952 45.3876C16.946 49.7385 22.847 52.1827 29 52.1827Z" fill="white"/>
</mask>
<g mask="url(#mask2_10_17347)">
<mask id="mask3_10_17347" style="mask-type:luminance" maskUnits="userSpaceOnUse" x="-389" y="-166" width="613" height="724">
<path d="M223.88 -165.88H-388.6V557.96H223.88V-165.88Z" fill="white"/>
</mask>
<g mask="url(#mask3_10_17347)">
<path d="M58 0H0V58H58V0Z" fill="#34A853"/>
</g>
</g>
</svg>
