<svg width="17" height="28" viewBox="0 0 17 28" fill="none" xmlns="http://www.w3.org/2000/svg">
<path d="M2.91236 5.82471C4.52081 5.82471 5.82471 4.52081 5.82471 2.91236C5.82471 1.30391 4.52081 0 2.91236 0C1.30391 0 0 1.30391 0 2.91236C0 4.52081 1.30391 5.82471 2.91236 5.82471Z" fill="#AEAEAE"/>
<path d="M14.0872 5.82471C15.6956 5.82471 16.9995 4.52081 16.9995 2.91236C16.9995 1.30391 15.6956 0 14.0872 0C12.4787 0 11.1748 1.30391 11.1748 2.91236C11.1748 4.52081 12.4787 5.82471 14.0872 5.82471Z" fill="#AEAEAE"/>
<path d="M2.91236 16.6052C4.52081 16.6052 5.82471 15.3013 5.82471 13.6928C5.82471 12.0844 4.52081 10.7805 2.91236 10.7805C1.30391 10.7805 0 12.0844 0 13.6928C0 15.3013 1.30391 16.6052 2.91236 16.6052Z" fill="#AEAEAE"/>
<path d="M14.0872 16.6052C15.6956 16.6052 16.9995 15.3013 16.9995 13.6928C16.9995 12.0844 15.6956 10.7805 14.0872 10.7805C12.4787 10.7805 11.1748 12.0844 11.1748 13.6928C11.1748 15.3013 12.4787 16.6052 14.0872 16.6052Z" fill="#AEAEAE"/>
<path d="M2.91236 27.0239C4.52081 27.0239 5.82471 25.72 5.82471 24.1116C5.82471 22.5031 4.52081 21.1992 2.91236 21.1992C1.30391 21.1992 0 22.5031 0 24.1116C0 25.72 1.30391 27.0239 2.91236 27.0239Z" fill="#AEAEAE"/>
<path d="M14.0872 27.0239C15.6956 27.0239 16.9995 25.72 16.9995 24.1116C16.9995 22.5031 15.6956 21.1992 14.0872 21.1992C12.4787 21.1992 11.1748 22.5031 11.1748 24.1116C11.1748 25.72 12.4787 27.0239 14.0872 27.0239Z" fill="#AEAEAE"/>
</svg>
