<svg width="27" height="27" viewBox="0 0 27 27" fill="none" xmlns="http://www.w3.org/2000/svg">
<path d="M13.5 0C10.8299 0 8.21986 0.791776 5.99979 2.27518C3.77973 3.75857 2.04939 5.86698 1.02761 8.33378C0.00582878 10.8006 -0.261488 13.515 0.259412 16.1337C0.780312 18.7525 2.06605 21.1579 3.95406 23.0459C5.84207 24.9339 8.24754 26.2197 10.8663 26.7406C13.485 27.2615 16.1994 26.9942 18.6662 25.9724C21.133 24.9506 23.2414 23.2203 24.7248 21.0002C26.2082 18.7801 27 16.17 27 13.5C27 9.91957 25.5777 6.4858 23.0459 3.95405C20.5142 1.42231 17.0804 0 13.5 0ZM13.5 25.442C11.1401 25.4425 8.83296 24.7432 6.87048 23.4324C4.90801 22.1217 3.37831 20.2584 2.47484 18.0783C1.57137 15.8981 1.3347 13.499 1.79479 11.1844C2.25487 8.86972 3.39105 6.74349 5.0596 5.07458C6.72814 3.40566 8.85414 2.26901 11.1687 1.80842C13.4833 1.34783 15.8824 1.58398 18.0628 2.48697C20.2431 3.38996 22.1067 4.91924 23.4179 6.88143C24.729 8.84361 25.4289 11.1506 25.4289 13.5105C25.4261 16.6727 24.1682 19.7044 21.9315 21.9397C19.6947 24.1749 16.6622 25.4308 13.5 25.4315V25.442Z" fill="black"/>
<path d="M14.9105 6.77258C14.9367 7.55944 14.3597 8.18891 13.4417 8.18891C13.2562 8.19149 13.072 8.15645 12.9005 8.08584C12.7289 8.01524 12.5735 7.91055 12.4435 7.77815C12.3136 7.64576 12.2119 7.48838 12.1445 7.31553C12.0771 7.14269 12.0455 6.95799 12.0515 6.77258C12.0465 6.58176 12.0803 6.39188 12.151 6.21457C12.2217 6.03726 12.3278 5.87623 12.4628 5.74125C12.5978 5.60628 12.7588 5.50021 12.9361 5.4295C13.1134 5.35879 13.3033 5.32493 13.4941 5.32999C13.6842 5.32315 13.8736 5.35596 14.0503 5.42639C14.227 5.49682 14.387 5.60329 14.5203 5.73901C14.6536 5.87474 14.7571 6.03675 14.8242 6.2147C14.8914 6.39265 14.9208 6.58265 14.9105 6.77258ZM12.34 23.0345V10.3397H14.6482V23.0345H12.34Z" fill="black"/>
</svg>
