<svg width="65" height="80" viewBox="0 0 65 80" fill="none" xmlns="http://www.w3.org/2000/svg">
<path d="M16.7961 55.2873V67.9233H13.7181V62.7213H8.93011V67.9233H5.85211V55.2873H8.93011V60.2373H13.7181V55.2873H16.7961ZM23.5901 68.0673C22.6061 68.0673 21.7181 67.8573 20.9261 67.4373C20.1461 67.0173 19.5281 66.4173 19.0721 65.6373C18.6281 64.8573 18.4061 63.9453 18.4061 62.9013C18.4061 61.8693 18.6341 60.9633 19.0901 60.1833C19.5461 59.3913 20.1701 58.7853 20.9621 58.3653C21.7541 57.9453 22.6421 57.7353 23.6261 57.7353C24.6101 57.7353 25.4981 57.9453 26.2901 58.3653C27.0821 58.7853 27.7061 59.3913 28.1621 60.1833C28.6181 60.9633 28.8461 61.8693 28.8461 62.9013C28.8461 63.9333 28.6121 64.8453 28.1441 65.6373C27.6881 66.4173 27.0581 67.0173 26.2541 67.4373C25.4621 67.8573 24.5741 68.0673 23.5901 68.0673ZM23.5901 65.4033C24.1781 65.4033 24.6761 65.1873 25.0841 64.7553C25.5041 64.3233 25.7141 63.7053 25.7141 62.9013C25.7141 62.0973 25.5101 61.4793 25.1021 61.0473C24.7061 60.6153 24.2141 60.3993 23.6261 60.3993C23.0261 60.3993 22.5281 60.6153 22.1321 61.0473C21.7361 61.4673 21.5381 62.0853 21.5381 62.9013C21.5381 63.7053 21.7301 64.3233 22.1141 64.7553C22.5101 65.1873 23.0021 65.4033 23.5901 65.4033ZM43.2951 57.7713C44.5431 57.7713 45.5331 58.1493 46.2651 58.9053C47.0091 59.6613 47.3811 60.7113 47.3811 62.0553V67.9233H44.3211V62.4693C44.3211 61.8213 44.1471 61.3233 43.7991 60.9753C43.4631 60.6153 42.9951 60.4353 42.3951 60.4353C41.7951 60.4353 41.3211 60.6153 40.9731 60.9753C40.6371 61.3233 40.4691 61.8213 40.4691 62.4693V67.9233H37.4091V62.4693C37.4091 61.8213 37.2351 61.3233 36.8871 60.9753C36.5511 60.6153 36.0831 60.4353 35.4831 60.4353C34.8831 60.4353 34.4091 60.6153 34.0611 60.9753C33.7251 61.3233 33.5571 61.8213 33.5571 62.4693V67.9233H30.4791V57.8793H33.5571V59.1393C33.8691 58.7193 34.2771 58.3893 34.7811 58.1493C35.2851 57.8973 35.8551 57.7713 36.4911 57.7713C37.2471 57.7713 37.9191 57.9333 38.5071 58.2573C39.1071 58.5813 39.5751 59.0433 39.9111 59.6433C40.2591 59.0913 40.7331 58.6413 41.3331 58.2933C41.9331 57.9453 42.5871 57.7713 43.2951 57.7713ZM59.0017 62.7393C59.0017 63.0273 58.9837 63.3273 58.9477 63.6393H51.9817C52.0297 64.2633 52.2277 64.7433 52.5757 65.0793C52.9357 65.4033 53.3737 65.5653 53.8897 65.5653C54.6577 65.5653 55.1917 65.2413 55.4917 64.5933H58.7677C58.5997 65.2533 58.2937 65.8473 57.8497 66.3753C57.4177 66.9033 56.8717 67.3173 56.2117 67.6173C55.5517 67.9173 54.8137 68.0673 53.9977 68.0673C53.0137 68.0673 52.1377 67.8573 51.3697 67.4373C50.6017 67.0173 50.0017 66.4173 49.5697 65.6373C49.1377 64.8573 48.9217 63.9453 48.9217 62.9013C48.9217 61.8573 49.1317 60.9453 49.5517 60.1653C49.9837 59.3853 50.5837 58.7853 51.3517 58.3653C52.1197 57.9453 53.0017 57.7353 53.9977 57.7353C54.9697 57.7353 55.8337 57.9393 56.5897 58.3473C57.3457 58.7553 57.9337 59.3373 58.3537 60.0933C58.7857 60.8493 59.0017 61.7313 59.0017 62.7393ZM55.8517 61.9293C55.8517 61.4013 55.6717 60.9813 55.3117 60.6693C54.9517 60.3573 54.5017 60.2013 53.9617 60.2013C53.4457 60.2013 53.0077 60.3513 52.6477 60.6513C52.2997 60.9513 52.0837 61.3773 51.9997 61.9293H55.8517Z" fill="#8C8C8C"/>
<path fill-rule="evenodd" clip-rule="evenodd" d="M31.0849 1.1001C31.722 0.618234 32.6016 0.618334 33.2385 1.10035L49.3309 13.2791C49.7766 13.6164 50.0386 14.1431 50.0386 14.7021V41.7846C50.0386 42.7702 49.2396 43.5692 48.254 43.5692H37.4448C36.4592 43.5692 35.6602 42.7702 35.6602 41.7846V28.4523H28.6553V41.7846C28.6553 42.7702 27.8563 43.5692 26.8707 43.5692H16.0616C15.076 43.5692 14.277 42.7702 14.277 41.7846V14.7021C14.277 14.143 14.539 13.6162 14.985 13.2788L31.0849 1.1001ZM17.8462 15.5898V40H25.0861V26.6677C25.0861 25.6821 25.8851 24.8831 26.8707 24.8831H37.4448C38.4305 24.8831 39.2294 25.6821 39.2294 26.6677V40H46.4694V15.5896L32.1613 4.76123L17.8462 15.5898Z" fill="#8C8C8C"/>
</svg>
