<svg width="76" height="79" viewBox="0 0 76 79" fill="none" xmlns="http://www.w3.org/2000/svg">
<path fill-rule="evenodd" clip-rule="evenodd" d="M38.3762 39.2612C48.2322 39.2612 56.2222 31.2713 56.2222 21.4152C56.2222 11.5591 48.2322 3.5692 38.3762 3.5692C28.5201 3.5692 20.5301 11.5591 20.5301 21.4152C20.5301 31.2713 28.5201 39.2612 38.3762 39.2612ZM38.3762 42.8304C50.2034 42.8304 59.7914 33.2425 59.7914 21.4152C59.7914 9.58792 50.2034 0 38.3762 0C26.5489 0 16.9609 9.58792 16.9609 21.4152C16.9609 33.2425 26.5489 42.8304 38.3762 42.8304Z" fill="#8C8C8C"/>
<path d="M36.8401 27.7182L36.2569 21.194L36.4513 20.9926C38.9397 20.9389 40.8448 20.4154 42.1667 19.422C43.5146 18.4017 44.1885 17.0324 44.1885 15.3141V15.2336C44.1885 13.7569 43.6701 12.5218 42.6333 11.5284C41.5965 10.5082 40.2227 9.99806 38.512 9.99806C35.894 9.99806 33.5353 11.26 31.4358 13.7837L29.4529 11.8103C31.9412 8.6959 34.9868 7.13867 38.5897 7.13867C41.1817 7.13867 43.2813 7.89044 44.8883 9.39396C46.4954 10.8975 47.2989 12.8038 47.2989 15.1127V15.1933C47.2989 17.5828 46.5472 19.4622 45.0438 20.8315C43.5405 22.174 41.5965 23.0197 39.2118 23.3687L38.823 27.7182H36.8401ZM36.0236 35.6923V31.4636H39.6006V35.6923H36.0236Z" fill="#8C8C8C"/>
<path d="M16.0953 69.3446L14.4753 67.1666C13.9953 67.2626 13.5273 67.3106 13.0713 67.3106C11.8833 67.3106 10.7913 67.0346 9.79532 66.4826C8.81132 65.9306 8.02532 65.1626 7.43732 64.1786C6.86132 63.1826 6.57332 62.0666 6.57332 60.8306C6.57332 59.5946 6.86132 58.4846 7.43732 57.5006C8.02532 56.5166 8.81132 55.7486 9.79532 55.1966C10.7913 54.6446 11.8833 54.3686 13.0713 54.3686C14.2593 54.3686 15.3453 54.6446 16.3293 55.1966C17.3253 55.7486 18.1053 56.5166 18.6693 57.5006C19.2453 58.4846 19.5333 59.5946 19.5333 60.8306C19.5333 61.9106 19.3113 62.9006 18.8673 63.8006C18.4353 64.6886 17.8293 65.4266 17.0493 66.0146L19.8213 69.3446H16.0953ZM9.72332 60.8306C9.72332 61.9466 10.0233 62.8406 10.6233 63.5126C11.2353 64.1726 12.0513 64.5026 13.0713 64.5026C14.0793 64.5026 14.8833 64.1666 15.4833 63.4946C16.0953 62.8226 16.4013 61.9346 16.4013 60.8306C16.4013 59.7146 16.0953 58.8266 15.4833 58.1666C14.8833 57.4946 14.0793 57.1586 13.0713 57.1586C12.0513 57.1586 11.2353 57.4886 10.6233 58.1486C10.0233 58.8086 9.72332 59.7026 9.72332 60.8306ZM31.1989 57.1406V67.1846H28.1209V65.8166C27.8089 66.2606 27.3829 66.6206 26.8429 66.8966C26.3149 67.1606 25.7269 67.2926 25.0789 67.2926C24.3109 67.2926 23.6329 67.1246 23.0449 66.7886C22.4569 66.4406 22.0009 65.9426 21.6769 65.2946C21.3529 64.6466 21.1909 63.8846 21.1909 63.0086V57.1406H24.2509V62.5946C24.2509 63.2666 24.4249 63.7886 24.7729 64.1606C25.1209 64.5326 25.5889 64.7186 26.1769 64.7186C26.7769 64.7186 27.2509 64.5326 27.5989 64.1606C27.9469 63.7886 28.1209 63.2666 28.1209 62.5946V57.1406H31.1989ZM42.8778 62.0006C42.8778 62.2886 42.8598 62.5886 42.8238 62.9006H35.8578C35.9058 63.5246 36.1038 64.0046 36.4518 64.3406C36.8118 64.6646 37.2498 64.8266 37.7658 64.8266C38.5338 64.8266 39.0678 64.5026 39.3678 63.8546H42.6438C42.4758 64.5146 42.1698 65.1086 41.7258 65.6366C41.2938 66.1646 40.7478 66.5786 40.0878 66.8786C39.4278 67.1786 38.6898 67.3286 37.8738 67.3286C36.8898 67.3286 36.0138 67.1186 35.2458 66.6986C34.4778 66.2786 33.8778 65.6786 33.4458 64.8986C33.0138 64.1186 32.7978 63.2066 32.7978 62.1626C32.7978 61.1186 33.0078 60.2066 33.4278 59.4266C33.8598 58.6466 34.4598 58.0466 35.2278 57.6266C35.9958 57.2066 36.8778 56.9966 37.8738 56.9966C38.8458 56.9966 39.7098 57.2006 40.4658 57.6086C41.2218 58.0166 41.8098 58.5986 42.2298 59.3546C42.6618 60.1106 42.8778 60.9926 42.8778 62.0006ZM39.7278 61.1906C39.7278 60.6626 39.5478 60.2426 39.1878 59.9306C38.8278 59.6186 38.3778 59.4626 37.8378 59.4626C37.3218 59.4626 36.8838 59.6126 36.5238 59.9126C36.1758 60.2126 35.9598 60.6386 35.8758 61.1906H39.7278ZM48.5876 67.3286C47.7116 67.3286 46.9316 67.1786 46.2476 66.8786C45.5636 66.5786 45.0236 66.1706 44.6276 65.6546C44.2316 65.1266 44.0096 64.5386 43.9616 63.8906H47.0036C47.0396 64.2386 47.2016 64.5206 47.4896 64.7366C47.7776 64.9526 48.1316 65.0606 48.5516 65.0606C48.9356 65.0606 49.2296 64.9886 49.4336 64.8446C49.6496 64.6886 49.7576 64.4906 49.7576 64.2506C49.7576 63.9626 49.6076 63.7526 49.3076 63.6206C49.0076 63.4766 48.5216 63.3206 47.8496 63.1526C47.1296 62.9846 46.5296 62.8106 46.0496 62.6306C45.5696 62.4386 45.1556 62.1446 44.8076 61.7486C44.4596 61.3406 44.2856 60.7946 44.2856 60.1106C44.2856 59.5346 44.4416 59.0126 44.7536 58.5446C45.0776 58.0646 45.5456 57.6866 46.1576 57.4106C46.7816 57.1346 47.5196 56.9966 48.3716 56.9966C49.6316 56.9966 50.6216 57.3086 51.3416 57.9326C52.0736 58.5566 52.4936 59.3846 52.6016 60.4166H49.7576C49.7096 60.0686 49.5536 59.7926 49.2896 59.5886C49.0376 59.3846 48.7016 59.2826 48.2816 59.2826C47.9216 59.2826 47.6456 59.3546 47.4536 59.4986C47.2616 59.6306 47.1656 59.8166 47.1656 60.0566C47.1656 60.3446 47.3156 60.5606 47.6156 60.7046C47.9276 60.8486 48.4076 60.9926 49.0556 61.1366C49.7996 61.3286 50.4056 61.5206 50.8736 61.7126C51.3416 61.8926 51.7496 62.1926 52.0976 62.6126C52.4576 63.0206 52.6436 63.5726 52.6556 64.2686C52.6556 64.8566 52.4876 65.3846 52.1516 65.8526C51.8276 66.3086 51.3536 66.6686 50.7296 66.9326C50.1176 67.1966 49.4036 67.3286 48.5876 67.3286ZM60.1367 64.5746V67.1846H58.5707C57.4547 67.1846 56.5847 66.9146 55.9607 66.3746C55.3367 65.8226 55.0247 64.9286 55.0247 63.6926V59.6966H53.8007V57.1406H55.0247V54.6926H58.1027V57.1406H60.1187V59.6966H58.1027V63.7286C58.1027 64.0286 58.1747 64.2446 58.3187 64.3766C58.4627 64.5086 58.7027 64.5746 59.0387 64.5746H60.1367ZM65.9372 67.3286C65.0612 67.3286 64.2812 67.1786 63.5972 66.8786C62.9132 66.5786 62.3732 66.1706 61.9772 65.6546C61.5812 65.1266 61.3592 64.5386 61.3112 63.8906H64.3532C64.3892 64.2386 64.5512 64.5206 64.8392 64.7366C65.1272 64.9526 65.4812 65.0606 65.9012 65.0606C66.2852 65.0606 66.5792 64.9886 66.7832 64.8446C66.9992 64.6886 67.1072 64.4906 67.1072 64.2506C67.1072 63.9626 66.9572 63.7526 66.6572 63.6206C66.3572 63.4766 65.8712 63.3206 65.1992 63.1526C64.4792 62.9846 63.8792 62.8106 63.3992 62.6306C62.9192 62.4386 62.5052 62.1446 62.1572 61.7486C61.8092 61.3406 61.6352 60.7946 61.6352 60.1106C61.6352 59.5346 61.7912 59.0126 62.1032 58.5446C62.4272 58.0646 62.8952 57.6866 63.5072 57.4106C64.1312 57.1346 64.8692 56.9966 65.7212 56.9966C66.9812 56.9966 67.9712 57.3086 68.6912 57.9326C69.4232 58.5566 69.8432 59.3846 69.9512 60.4166H67.1072C67.0592 60.0686 66.9032 59.7926 66.6392 59.5886C66.3872 59.3846 66.0512 59.2826 65.6312 59.2826C65.2712 59.2826 64.9952 59.3546 64.8032 59.4986C64.6112 59.6306 64.5152 59.8166 64.5152 60.0566C64.5152 60.3446 64.6652 60.5606 64.9652 60.7046C65.2772 60.8486 65.7572 60.9926 66.4052 61.1366C67.1492 61.3286 67.7552 61.5206 68.2232 61.7126C68.6912 61.8926 69.0992 62.1926 69.4472 62.6126C69.8072 63.0206 69.9932 63.5726 70.0052 64.2686C70.0052 64.8566 69.8372 65.3846 69.5012 65.8526C69.1772 66.3086 68.7032 66.6686 68.0792 66.9326C67.4672 67.1966 66.7532 67.3286 65.9372 67.3286Z" fill="#8C8C8C"/>
</svg>
