<svg width="76" height="80" viewBox="0 0 76 80" fill="none" xmlns="http://www.w3.org/2000/svg">
<path fill-rule="evenodd" clip-rule="evenodd" d="M38.3762 40C48.2323 40 56.2222 32.0101 56.2222 22.154C56.2222 12.2979 48.2323 4.30797 38.3762 4.30797C28.5201 4.30797 20.5302 12.2979 20.5302 22.154C20.5302 32.0101 28.5201 40 38.3762 40ZM38.3762 43.5692C50.2035 43.5692 59.7914 33.9813 59.7914 22.154C59.7914 10.3267 50.2035 0.73877 38.3762 0.73877C26.5489 0.73877 16.961 10.3267 16.961 22.154C16.961 33.9813 26.5489 43.5692 38.3762 43.5692Z" fill="white"/>
<path d="M36.8402 28.457L36.257 21.9328L36.4514 21.7314C38.9397 21.6777 40.8449 21.1541 42.1668 20.1607C43.5146 19.1405 44.1886 17.7712 44.1886 16.0529V15.9723C44.1886 14.4957 43.6702 13.2606 42.6334 12.2672C41.5966 11.247 40.2228 10.7368 38.5121 10.7368C35.8941 10.7368 33.5354 11.9987 31.4359 14.5225L29.453 12.5491C31.9413 9.43467 34.9869 7.87744 38.5898 7.87744C41.1818 7.87744 43.2814 8.62921 44.8884 10.1327C46.4955 11.6363 47.299 13.5425 47.299 15.8515V15.9321C47.299 18.3216 46.5473 20.201 45.0439 21.5703C43.5406 22.9127 41.5966 23.7585 39.2119 24.1075L38.8231 28.457H36.8402ZM36.0237 36.4311V32.2024H39.6007V36.4311H36.0237Z" fill="white"/>
<path d="M16.0952 70.0833L14.4752 67.9053C13.9952 68.0013 13.5272 68.0493 13.0712 68.0493C11.8832 68.0493 10.7912 67.7733 9.79523 67.2213C8.81123 66.6693 8.02523 65.9013 7.43723 64.9173C6.86123 63.9213 6.57323 62.8053 6.57323 61.5693C6.57323 60.3333 6.86123 59.2233 7.43723 58.2393C8.02523 57.2553 8.81123 56.4873 9.79523 55.9353C10.7912 55.3833 11.8832 55.1073 13.0712 55.1073C14.2592 55.1073 15.3452 55.3833 16.3292 55.9353C17.3252 56.4873 18.1052 57.2553 18.6692 58.2393C19.2452 59.2233 19.5332 60.3333 19.5332 61.5693C19.5332 62.6493 19.3112 63.6393 18.8672 64.5393C18.4352 65.4273 17.8292 66.1653 17.0492 66.7533L19.8212 70.0833H16.0952ZM9.72323 61.5693C9.72323 62.6853 10.0232 63.5793 10.6232 64.2513C11.2352 64.9113 12.0512 65.2413 13.0712 65.2413C14.0792 65.2413 14.8832 64.9053 15.4832 64.2333C16.0952 63.5613 16.4012 62.6733 16.4012 61.5693C16.4012 60.4533 16.0952 59.5653 15.4832 58.9053C14.8832 58.2333 14.0792 57.8973 13.0712 57.8973C12.0512 57.8973 11.2352 58.2273 10.6232 58.8873C10.0232 59.5473 9.72323 60.4413 9.72323 61.5693ZM31.1988 57.8793V67.9233H28.1208V66.5553C27.8088 66.9993 27.3828 67.3593 26.8428 67.6353C26.3148 67.8993 25.7268 68.0313 25.0788 68.0313C24.3108 68.0313 23.6328 67.8633 23.0448 67.5273C22.4568 67.1793 22.0008 66.6813 21.6768 66.0333C21.3528 65.3853 21.1908 64.6233 21.1908 63.7473V57.8793H24.2508V63.3333C24.2508 64.0053 24.4248 64.5273 24.7728 64.8993C25.1208 65.2713 25.5888 65.4573 26.1768 65.4573C26.7768 65.4573 27.2508 65.2713 27.5988 64.8993C27.9468 64.5273 28.1208 64.0053 28.1208 63.3333V57.8793H31.1988ZM42.8777 62.7393C42.8777 63.0273 42.8597 63.3273 42.8237 63.6393H35.8577C35.9057 64.2633 36.1037 64.7433 36.4517 65.0793C36.8117 65.4033 37.2497 65.5653 37.7657 65.5653C38.5337 65.5653 39.0677 65.2413 39.3677 64.5933H42.6437C42.4757 65.2533 42.1697 65.8473 41.7257 66.3753C41.2937 66.9033 40.7477 67.3173 40.0877 67.6173C39.4277 67.9173 38.6897 68.0673 37.8737 68.0673C36.8897 68.0673 36.0137 67.8573 35.2457 67.4373C34.4777 67.0173 33.8777 66.4173 33.4457 65.6373C33.0137 64.8573 32.7977 63.9453 32.7977 62.9013C32.7977 61.8573 33.0077 60.9453 33.4277 60.1653C33.8597 59.3853 34.4597 58.7853 35.2277 58.3653C35.9957 57.9453 36.8777 57.7353 37.8737 57.7353C38.8457 57.7353 39.7097 57.9393 40.4657 58.3473C41.2217 58.7553 41.8097 59.3373 42.2297 60.0933C42.6617 60.8493 42.8777 61.7313 42.8777 62.7393ZM39.7277 61.9293C39.7277 61.4013 39.5477 60.9813 39.1877 60.6693C38.8277 60.3573 38.3777 60.2013 37.8377 60.2013C37.3217 60.2013 36.8837 60.3513 36.5237 60.6513C36.1757 60.9513 35.9597 61.3773 35.8757 61.9293H39.7277ZM48.5875 68.0673C47.7115 68.0673 46.9315 67.9173 46.2475 67.6173C45.5635 67.3173 45.0235 66.9093 44.6275 66.3933C44.2315 65.8653 44.0095 65.2773 43.9615 64.6293H47.0035C47.0395 64.9773 47.2015 65.2593 47.4895 65.4753C47.7775 65.6913 48.1315 65.7993 48.5515 65.7993C48.9355 65.7993 49.2295 65.7273 49.4335 65.5833C49.6495 65.4273 49.7575 65.2293 49.7575 64.9893C49.7575 64.7013 49.6075 64.4913 49.3075 64.3593C49.0075 64.2153 48.5215 64.0593 47.8495 63.8913C47.1295 63.7233 46.5295 63.5493 46.0495 63.3693C45.5695 63.1773 45.1555 62.8833 44.8075 62.4873C44.4595 62.0793 44.2855 61.5333 44.2855 60.8493C44.2855 60.2733 44.4415 59.7513 44.7535 59.2833C45.0775 58.8033 45.5455 58.4253 46.1575 58.1493C46.7815 57.8733 47.5195 57.7353 48.3715 57.7353C49.6315 57.7353 50.6215 58.0473 51.3415 58.6713C52.0735 59.2953 52.4935 60.1233 52.6015 61.1553H49.7575C49.7095 60.8073 49.5535 60.5313 49.2895 60.3273C49.0375 60.1233 48.7015 60.0213 48.2815 60.0213C47.9215 60.0213 47.6455 60.0933 47.4535 60.2373C47.2615 60.3693 47.1655 60.5553 47.1655 60.7953C47.1655 61.0833 47.3155 61.2993 47.6155 61.4433C47.9275 61.5873 48.4075 61.7313 49.0555 61.8753C49.7995 62.0673 50.4055 62.2593 50.8735 62.4513C51.3415 62.6313 51.7495 62.9313 52.0975 63.3513C52.4575 63.7593 52.6435 64.3113 52.6555 65.0073C52.6555 65.5953 52.4875 66.1233 52.1515 66.5913C51.8275 67.0473 51.3535 67.4073 50.7295 67.6713C50.1175 67.9353 49.4035 68.0673 48.5875 68.0673ZM60.1366 65.3133V67.9233H58.5706C57.4546 67.9233 56.5846 67.6533 55.9606 67.1133C55.3366 66.5613 55.0246 65.6673 55.0246 64.4313V60.4353H53.8006V57.8793H55.0246V55.4313H58.1026V57.8793H60.1186V60.4353H58.1026V64.4673C58.1026 64.7673 58.1746 64.9833 58.3186 65.1153C58.4626 65.2473 58.7026 65.3133 59.0386 65.3133H60.1366ZM65.9371 68.0673C65.0611 68.0673 64.2811 67.9173 63.5971 67.6173C62.9131 67.3173 62.3731 66.9093 61.9771 66.3933C61.5811 65.8653 61.3591 65.2773 61.3111 64.6293H64.3531C64.3891 64.9773 64.5511 65.2593 64.8391 65.4753C65.1271 65.6913 65.4811 65.7993 65.9011 65.7993C66.2851 65.7993 66.5791 65.7273 66.7831 65.5833C66.9991 65.4273 67.1071 65.2293 67.1071 64.9893C67.1071 64.7013 66.9571 64.4913 66.6571 64.3593C66.3571 64.2153 65.8711 64.0593 65.1991 63.8913C64.4791 63.7233 63.8791 63.5493 63.3991 63.3693C62.9191 63.1773 62.5051 62.8833 62.1571 62.4873C61.8091 62.0793 61.6351 61.5333 61.6351 60.8493C61.6351 60.2733 61.7911 59.7513 62.1031 59.2833C62.4271 58.8033 62.8951 58.4253 63.5071 58.1493C64.1311 57.8733 64.8691 57.7353 65.7211 57.7353C66.9811 57.7353 67.9711 58.0473 68.6911 58.6713C69.4231 59.2953 69.8431 60.1233 69.9511 61.1553H67.1071C67.0591 60.8073 66.9031 60.5313 66.6391 60.3273C66.3871 60.1233 66.0511 60.0213 65.6311 60.0213C65.2711 60.0213 64.9951 60.0933 64.8031 60.2373C64.6111 60.3693 64.5151 60.5553 64.5151 60.7953C64.5151 61.0833 64.6651 61.2993 64.9651 61.4433C65.2771 61.5873 65.7571 61.7313 66.4051 61.8753C67.1491 62.0673 67.7551 62.2593 68.2231 62.4513C68.6911 62.6313 69.0991 62.9313 69.4471 63.3513C69.8071 63.7593 69.9931 64.3113 70.0051 65.0073C70.0051 65.5953 69.8371 66.1233 69.5011 66.5913C69.1771 67.0473 68.7031 67.4073 68.0791 67.6713C67.4671 67.9353 66.7531 68.0673 65.9371 68.0673Z" fill="white"/>
</svg>
