<svg width="389" height="79" viewBox="0 0 389 79" fill="none" xmlns="http://www.w3.org/2000/svg">
<path fill-rule="evenodd" clip-rule="evenodd" d="M180.376 39.2612C190.232 39.2612 198.222 31.2713 198.222 21.4152C198.222 11.5591 190.232 3.5692 180.376 3.5692C170.52 3.5692 162.53 11.5591 162.53 21.4152C162.53 31.2713 170.52 39.2612 180.376 39.2612ZM180.376 42.8304C192.203 42.8304 201.791 33.2425 201.791 21.4152C201.791 9.58792 192.203 0 180.376 0C168.549 0 158.961 9.58792 158.961 21.4152C158.961 33.2425 168.549 42.8304 180.376 42.8304Z" fill="#8C8C8C"/>
<path d="M178.84 27.7182L178.257 21.194L178.451 20.9926C180.94 20.9389 182.845 20.4154 184.167 19.422C185.515 18.4017 186.188 17.0324 186.188 15.3141V15.2336C186.188 13.7569 185.67 12.5218 184.633 11.5284C183.596 10.5082 182.223 9.99806 180.512 9.99806C177.894 9.99806 175.535 11.26 173.436 13.7837L171.453 11.8103C173.941 8.6959 176.987 7.13867 180.59 7.13867C183.182 7.13867 185.281 7.89044 186.888 9.39396C188.495 10.8975 189.299 12.8038 189.299 15.1127V15.1933C189.299 17.5828 188.547 19.4622 187.044 20.8315C185.54 22.174 183.596 23.0197 181.212 23.3687L180.823 27.7182H178.84ZM178.024 35.6923V31.4636H181.601V35.6923H178.024Z" fill="#8C8C8C"/>
<path d="M158.095 69.3446L156.475 67.1666C155.995 67.2626 155.527 67.3106 155.071 67.3106C153.883 67.3106 152.791 67.0346 151.795 66.4826C150.811 65.9306 150.025 65.1626 149.437 64.1786C148.861 63.1826 148.573 62.0666 148.573 60.8306C148.573 59.5946 148.861 58.4846 149.437 57.5006C150.025 56.5166 150.811 55.7486 151.795 55.1966C152.791 54.6446 153.883 54.3686 155.071 54.3686C156.259 54.3686 157.345 54.6446 158.329 55.1966C159.325 55.7486 160.105 56.5166 160.669 57.5006C161.245 58.4846 161.533 59.5946 161.533 60.8306C161.533 61.9106 161.311 62.9006 160.867 63.8006C160.435 64.6886 159.829 65.4266 159.049 66.0146L161.821 69.3446H158.095ZM151.723 60.8306C151.723 61.9466 152.023 62.8406 152.623 63.5126C153.235 64.1726 154.051 64.5026 155.071 64.5026C156.079 64.5026 156.883 64.1666 157.483 63.4946C158.095 62.8226 158.401 61.9346 158.401 60.8306C158.401 59.7146 158.095 58.8266 157.483 58.1666C156.883 57.4946 156.079 57.1586 155.071 57.1586C154.051 57.1586 153.235 57.4886 152.623 58.1486C152.023 58.8086 151.723 59.7026 151.723 60.8306ZM173.199 57.1406V67.1846H170.121V65.8166C169.809 66.2606 169.383 66.6206 168.843 66.8966C168.315 67.1606 167.727 67.2926 167.079 67.2926C166.311 67.2926 165.633 67.1246 165.045 66.7886C164.457 66.4406 164.001 65.9426 163.677 65.2946C163.353 64.6466 163.191 63.8846 163.191 63.0086V57.1406H166.251V62.5946C166.251 63.2666 166.425 63.7886 166.773 64.1606C167.121 64.5326 167.589 64.7186 168.177 64.7186C168.777 64.7186 169.251 64.5326 169.599 64.1606C169.947 63.7886 170.121 63.2666 170.121 62.5946V57.1406H173.199ZM184.878 62.0006C184.878 62.2886 184.86 62.5886 184.824 62.9006H177.858C177.906 63.5246 178.104 64.0046 178.452 64.3406C178.812 64.6646 179.25 64.8266 179.766 64.8266C180.534 64.8266 181.068 64.5026 181.368 63.8546H184.644C184.476 64.5146 184.17 65.1086 183.726 65.6366C183.294 66.1646 182.748 66.5786 182.088 66.8786C181.428 67.1786 180.69 67.3286 179.874 67.3286C178.89 67.3286 178.014 67.1186 177.246 66.6986C176.478 66.2786 175.878 65.6786 175.446 64.8986C175.014 64.1186 174.798 63.2066 174.798 62.1626C174.798 61.1186 175.008 60.2066 175.428 59.4266C175.86 58.6466 176.46 58.0466 177.228 57.6266C177.996 57.2066 178.878 56.9966 179.874 56.9966C180.846 56.9966 181.71 57.2006 182.466 57.6086C183.222 58.0166 183.81 58.5986 184.23 59.3546C184.662 60.1106 184.878 60.9926 184.878 62.0006ZM181.728 61.1906C181.728 60.6626 181.548 60.2426 181.188 59.9306C180.828 59.6186 180.378 59.4626 179.838 59.4626C179.322 59.4626 178.884 59.6126 178.524 59.9126C178.176 60.2126 177.96 60.6386 177.876 61.1906H181.728ZM190.588 67.3286C189.712 67.3286 188.932 67.1786 188.248 66.8786C187.564 66.5786 187.024 66.1706 186.628 65.6546C186.232 65.1266 186.01 64.5386 185.962 63.8906H189.004C189.04 64.2386 189.202 64.5206 189.49 64.7366C189.778 64.9526 190.132 65.0606 190.552 65.0606C190.936 65.0606 191.23 64.9886 191.434 64.8446C191.65 64.6886 191.758 64.4906 191.758 64.2506C191.758 63.9626 191.608 63.7526 191.308 63.6206C191.008 63.4766 190.522 63.3206 189.85 63.1526C189.13 62.9846 188.53 62.8106 188.05 62.6306C187.57 62.4386 187.156 62.1446 186.808 61.7486C186.46 61.3406 186.286 60.7946 186.286 60.1106C186.286 59.5346 186.442 59.0126 186.754 58.5446C187.078 58.0646 187.546 57.6866 188.158 57.4106C188.782 57.1346 189.52 56.9966 190.372 56.9966C191.632 56.9966 192.622 57.3086 193.342 57.9326C194.074 58.5566 194.494 59.3846 194.602 60.4166H191.758C191.71 60.0686 191.554 59.7926 191.29 59.5886C191.038 59.3846 190.702 59.2826 190.282 59.2826C189.922 59.2826 189.646 59.3546 189.454 59.4986C189.262 59.6306 189.166 59.8166 189.166 60.0566C189.166 60.3446 189.316 60.5606 189.616 60.7046C189.928 60.8486 190.408 60.9926 191.056 61.1366C191.8 61.3286 192.406 61.5206 192.874 61.7126C193.342 61.8926 193.75 62.1926 194.098 62.6126C194.458 63.0206 194.644 63.5726 194.656 64.2686C194.656 64.8566 194.488 65.3846 194.152 65.8526C193.828 66.3086 193.354 66.6686 192.73 66.9326C192.118 67.1966 191.404 67.3286 190.588 67.3286ZM202.137 64.5746V67.1846H200.571C199.455 67.1846 198.585 66.9146 197.961 66.3746C197.337 65.8226 197.025 64.9286 197.025 63.6926V59.6966H195.801V57.1406H197.025V54.6926H200.103V57.1406H202.119V59.6966H200.103V63.7286C200.103 64.0286 200.175 64.2446 200.319 64.3766C200.463 64.5086 200.703 64.5746 201.039 64.5746H202.137ZM207.937 67.3286C207.061 67.3286 206.281 67.1786 205.597 66.8786C204.913 66.5786 204.373 66.1706 203.977 65.6546C203.581 65.1266 203.359 64.5386 203.311 63.8906H206.353C206.389 64.2386 206.551 64.5206 206.839 64.7366C207.127 64.9526 207.481 65.0606 207.901 65.0606C208.285 65.0606 208.579 64.9886 208.783 64.8446C208.999 64.6886 209.107 64.4906 209.107 64.2506C209.107 63.9626 208.957 63.7526 208.657 63.6206C208.357 63.4766 207.871 63.3206 207.199 63.1526C206.479 62.9846 205.879 62.8106 205.399 62.6306C204.919 62.4386 204.505 62.1446 204.157 61.7486C203.809 61.3406 203.635 60.7946 203.635 60.1106C203.635 59.5346 203.791 59.0126 204.103 58.5446C204.427 58.0646 204.895 57.6866 205.507 57.4106C206.131 57.1346 206.869 56.9966 207.721 56.9966C208.981 56.9966 209.971 57.3086 210.691 57.9326C211.423 58.5566 211.843 59.3846 211.951 60.4166H209.107C209.059 60.0686 208.903 59.7926 208.639 59.5886C208.387 59.3846 208.051 59.2826 207.631 59.2826C207.271 59.2826 206.995 59.3546 206.803 59.4986C206.611 59.6306 206.515 59.8166 206.515 60.0566C206.515 60.3446 206.665 60.5606 206.965 60.7046C207.277 60.8486 207.757 60.9926 208.405 61.1366C209.149 61.3286 209.755 61.5206 210.223 61.7126C210.691 61.8926 211.099 62.1926 211.447 62.6126C211.807 63.0206 211.993 63.5726 212.005 64.2686C212.005 64.8566 211.837 65.3846 211.501 65.8526C211.177 66.3086 210.703 66.6686 210.079 66.9326C209.467 67.1966 208.753 67.3286 207.937 67.3286Z" fill="#8C8C8C"/>
<path fill-rule="evenodd" clip-rule="evenodd" d="M315.104 5.35389V38.6695L325.44 28.9412C326.087 28.3322 326.943 27.9928 327.831 27.9928C328.72 27.9928 329.575 28.332 330.223 28.941L340.565 38.6939L340.559 5.35389H315.104ZM315.036 1.78468C314.577 1.78326 314.124 1.87219 313.7 2.04592C313.275 2.22032 312.888 2.47697 312.563 2.80131C312.237 3.12548 311.979 3.51082 311.802 3.93531C311.626 4.35996 311.535 4.81501 311.535 5.2743C311.535 5.27429 311.535 5.27431 311.535 5.2743V42.8C311.535 43.512 311.958 44.1559 312.612 44.4383C313.266 44.7206 314.024 44.5875 314.543 44.0995L327.831 31.5918L341.126 44.1289C341.645 44.6176 342.404 44.7513 343.058 44.469C343.712 44.1867 344.136 43.5425 344.135 42.8301L344.128 5.27432C344.128 5.27444 344.128 5.27419 344.128 5.27432C344.128 4.81465 344.037 4.35939 343.861 3.93531C343.684 3.51082 343.426 3.12548 343.1 2.80131C342.774 2.47697 342.388 2.22032 341.963 2.04592C341.539 1.87223 341.086 1.78326 340.627 1.78468H340.631V3.56929L340.623 1.7847C340.624 1.7847 340.626 1.78469 340.627 1.78468" fill="#8C8C8C"/>
<path d="M284.231 60.7046C284.963 60.8606 285.551 61.2266 285.995 61.8026C286.439 62.3666 286.661 63.0146 286.661 63.7466C286.661 64.8026 286.289 65.6426 285.545 66.2666C284.813 66.8786 283.787 67.1846 282.467 67.1846H276.581V54.5486H282.269C283.553 54.5486 284.555 54.8426 285.275 55.4306C286.007 56.0186 286.373 56.8166 286.373 57.8246C286.373 58.5686 286.175 59.1866 285.779 59.6786C285.395 60.1706 284.879 60.5126 284.231 60.7046ZM279.659 59.6606H281.675C282.179 59.6606 282.563 59.5526 282.827 59.3366C283.103 59.1086 283.241 58.7786 283.241 58.3466C283.241 57.9146 283.103 57.5846 282.827 57.3566C282.563 57.1286 282.179 57.0146 281.675 57.0146H279.659V59.6606ZM281.927 64.7006C282.443 64.7006 282.839 64.5866 283.115 64.3586C283.403 64.1186 283.547 63.7766 283.547 63.3326C283.547 62.8886 283.397 62.5406 283.097 62.2886C282.809 62.0366 282.407 61.9106 281.891 61.9106H279.659V64.7006H281.927ZM293.018 67.3286C292.034 67.3286 291.146 67.1186 290.354 66.6986C289.574 66.2786 288.956 65.6786 288.5 64.8986C288.056 64.1186 287.834 63.2066 287.834 62.1626C287.834 61.1306 288.062 60.2246 288.518 59.4446C288.974 58.6526 289.598 58.0466 290.39 57.6266C291.182 57.2066 292.07 56.9966 293.054 56.9966C294.038 56.9966 294.926 57.2066 295.718 57.6266C296.51 58.0466 297.134 58.6526 297.59 59.4446C298.046 60.2246 298.274 61.1306 298.274 62.1626C298.274 63.1946 298.04 64.1066 297.572 64.8986C297.116 65.6786 296.486 66.2786 295.682 66.6986C294.89 67.1186 294.002 67.3286 293.018 67.3286ZM293.018 64.6646C293.606 64.6646 294.104 64.4486 294.512 64.0166C294.932 63.5846 295.142 62.9666 295.142 62.1626C295.142 61.3586 294.938 60.7406 294.53 60.3086C294.134 59.8766 293.642 59.6606 293.054 59.6606C292.454 59.6606 291.956 59.8766 291.56 60.3086C291.164 60.7286 290.966 61.3466 290.966 62.1626C290.966 62.9666 291.158 63.5846 291.542 64.0166C291.938 64.4486 292.43 64.6646 293.018 64.6646ZM304.479 67.3286C303.495 67.3286 302.607 67.1186 301.815 66.6986C301.035 66.2786 300.417 65.6786 299.961 64.8986C299.517 64.1186 299.295 63.2066 299.295 62.1626C299.295 61.1306 299.523 60.2246 299.979 59.4446C300.435 58.6526 301.059 58.0466 301.851 57.6266C302.643 57.2066 303.531 56.9966 304.515 56.9966C305.499 56.9966 306.387 57.2066 307.179 57.6266C307.971 58.0466 308.595 58.6526 309.051 59.4446C309.507 60.2246 309.735 61.1306 309.735 62.1626C309.735 63.1946 309.501 64.1066 309.033 64.8986C308.577 65.6786 307.947 66.2786 307.143 66.6986C306.351 67.1186 305.463 67.3286 304.479 67.3286ZM304.479 64.6646C305.067 64.6646 305.565 64.4486 305.973 64.0166C306.393 63.5846 306.603 62.9666 306.603 62.1626C306.603 61.3586 306.399 60.7406 305.991 60.3086C305.595 59.8766 305.103 59.6606 304.515 59.6606C303.915 59.6606 303.417 59.8766 303.021 60.3086C302.625 60.7286 302.427 61.3466 302.427 62.1626C302.427 62.9666 302.619 63.5846 303.003 64.0166C303.399 64.4486 303.891 64.6646 304.479 64.6646ZM317.506 67.1846L314.446 62.9726V67.1846H311.368V53.8646H314.446V61.2266L317.488 57.1406H321.286L317.11 62.1806L321.322 67.1846H317.506ZM335.311 57.0326C336.559 57.0326 337.549 57.4106 338.281 58.1666C339.025 58.9226 339.397 59.9726 339.397 61.3166V67.1846H336.337V61.7306C336.337 61.0826 336.163 60.5846 335.815 60.2366C335.479 59.8766 335.011 59.6966 334.411 59.6966C333.811 59.6966 333.337 59.8766 332.989 60.2366C332.653 60.5846 332.485 61.0826 332.485 61.7306V67.1846H329.425V61.7306C329.425 61.0826 329.251 60.5846 328.903 60.2366C328.567 59.8766 328.099 59.6966 327.499 59.6966C326.899 59.6966 326.425 59.8766 326.077 60.2366C325.741 60.5846 325.573 61.0826 325.573 61.7306V67.1846H322.495V57.1406H325.573V58.4006C325.885 57.9806 326.293 57.6506 326.797 57.4106C327.301 57.1586 327.871 57.0326 328.507 57.0326C329.263 57.0326 329.935 57.1946 330.523 57.5186C331.123 57.8426 331.591 58.3046 331.927 58.9046C332.275 58.3526 332.749 57.9026 333.349 57.5546C333.949 57.2066 334.603 57.0326 335.311 57.0326ZM340.938 62.1446C340.938 61.1126 341.13 60.2066 341.514 59.4266C341.91 58.6466 342.444 58.0466 343.116 57.6266C343.788 57.2066 344.538 56.9966 345.366 56.9966C346.074 56.9966 346.692 57.1406 347.22 57.4286C347.76 57.7166 348.174 58.0946 348.462 58.5626V57.1406H351.54V67.1846H348.462V65.7626C348.162 66.2306 347.742 66.6086 347.202 66.8966C346.674 67.1846 346.056 67.3286 345.348 67.3286C344.532 67.3286 343.788 67.1186 343.116 66.6986C342.444 66.2666 341.91 65.6606 341.514 64.8806C341.13 64.0886 340.938 63.1766 340.938 62.1446ZM348.462 62.1626C348.462 61.3946 348.246 60.7886 347.814 60.3446C347.394 59.9006 346.878 59.6786 346.266 59.6786C345.654 59.6786 345.132 59.9006 344.7 60.3446C344.28 60.7766 344.07 61.3766 344.07 62.1446C344.07 62.9126 344.28 63.5246 344.7 63.9806C345.132 64.4246 345.654 64.6466 346.266 64.6466C346.878 64.6466 347.394 64.4246 347.814 63.9806C348.246 63.5366 348.462 62.9306 348.462 62.1626ZM356.844 58.8146C357.204 58.2626 357.654 57.8306 358.194 57.5186C358.734 57.1946 359.334 57.0326 359.994 57.0326V60.2906H359.148C358.38 60.2906 357.804 60.4586 357.42 60.7946C357.036 61.1186 356.844 61.6946 356.844 62.5226V67.1846H353.766V57.1406H356.844V58.8146ZM367.604 67.1846L364.544 62.9726V67.1846H361.466V53.8646H364.544V61.2266L367.586 57.1406H371.384L367.208 62.1806L371.42 67.1846H367.604ZM376.679 67.3286C375.803 67.3286 375.023 67.1786 374.339 66.8786C373.655 66.5786 373.115 66.1706 372.719 65.6546C372.323 65.1266 372.101 64.5386 372.053 63.8906H375.095C375.131 64.2386 375.293 64.5206 375.581 64.7366C375.869 64.9526 376.223 65.0606 376.643 65.0606C377.027 65.0606 377.321 64.9886 377.525 64.8446C377.741 64.6886 377.849 64.4906 377.849 64.2506C377.849 63.9626 377.699 63.7526 377.399 63.6206C377.099 63.4766 376.613 63.3206 375.941 63.1526C375.221 62.9846 374.621 62.8106 374.141 62.6306C373.661 62.4386 373.247 62.1446 372.899 61.7486C372.551 61.3406 372.377 60.7946 372.377 60.1106C372.377 59.5346 372.533 59.0126 372.845 58.5446C373.169 58.0646 373.637 57.6866 374.249 57.4106C374.873 57.1346 375.611 56.9966 376.463 56.9966C377.723 56.9966 378.713 57.3086 379.433 57.9326C380.165 58.5566 380.585 59.3846 380.693 60.4166H377.849C377.801 60.0686 377.645 59.7926 377.381 59.5886C377.129 59.3846 376.793 59.2826 376.373 59.2826C376.013 59.2826 375.737 59.3546 375.545 59.4986C375.353 59.6306 375.257 59.8166 375.257 60.0566C375.257 60.3446 375.407 60.5606 375.707 60.7046C376.019 60.8486 376.499 60.9926 377.147 61.1366C377.891 61.3286 378.497 61.5206 378.965 61.7126C379.433 61.8926 379.841 62.1926 380.189 62.6126C380.549 63.0206 380.735 63.5726 380.747 64.2686C380.747 64.8566 380.579 65.3846 380.243 65.8526C379.919 66.3086 379.445 66.6686 378.821 66.9326C378.209 67.1966 377.495 67.3286 376.679 67.3286Z" fill="#8C8C8C"/>
<path d="M16.7961 54.5486V67.1846H13.7181V61.9826H8.93011V67.1846H5.85211V54.5486H8.93011V59.4986H13.7181V54.5486H16.7961ZM23.5901 67.3286C22.6061 67.3286 21.7181 67.1186 20.9261 66.6986C20.1461 66.2786 19.5281 65.6786 19.0721 64.8986C18.6281 64.1186 18.4061 63.2066 18.4061 62.1626C18.4061 61.1306 18.6341 60.2246 19.0901 59.4446C19.5461 58.6526 20.1701 58.0466 20.9621 57.6266C21.7541 57.2066 22.6421 56.9966 23.6261 56.9966C24.6101 56.9966 25.4981 57.2066 26.2901 57.6266C27.0821 58.0466 27.7061 58.6526 28.1621 59.4446C28.6181 60.2246 28.8461 61.1306 28.8461 62.1626C28.8461 63.1946 28.6121 64.1066 28.1441 64.8986C27.6881 65.6786 27.0581 66.2786 26.2541 66.6986C25.4621 67.1186 24.5741 67.3286 23.5901 67.3286ZM23.5901 64.6646C24.1781 64.6646 24.6761 64.4486 25.0841 64.0166C25.5041 63.5846 25.7141 62.9666 25.7141 62.1626C25.7141 61.3586 25.5101 60.7406 25.1021 60.3086C24.7061 59.8766 24.2141 59.6606 23.6261 59.6606C23.0261 59.6606 22.5281 59.8766 22.1321 60.3086C21.7361 60.7286 21.5381 61.3466 21.5381 62.1626C21.5381 62.9666 21.7301 63.5846 22.1141 64.0166C22.5101 64.4486 23.0021 64.6646 23.5901 64.6646ZM43.2951 57.0326C44.5431 57.0326 45.5331 57.4106 46.2651 58.1666C47.0091 58.9226 47.3811 59.9726 47.3811 61.3166V67.1846H44.3211V61.7306C44.3211 61.0826 44.1471 60.5846 43.7991 60.2366C43.4631 59.8766 42.9951 59.6966 42.3951 59.6966C41.7951 59.6966 41.3211 59.8766 40.9731 60.2366C40.6371 60.5846 40.4691 61.0826 40.4691 61.7306V67.1846H37.4091V61.7306C37.4091 61.0826 37.2351 60.5846 36.8871 60.2366C36.5511 59.8766 36.0831 59.6966 35.4831 59.6966C34.8831 59.6966 34.4091 59.8766 34.0611 60.2366C33.7251 60.5846 33.5571 61.0826 33.5571 61.7306V67.1846H30.4791V57.1406H33.5571V58.4006C33.8691 57.9806 34.2771 57.6506 34.7811 57.4106C35.2851 57.1586 35.8551 57.0326 36.4911 57.0326C37.2471 57.0326 37.9191 57.1946 38.5071 57.5186C39.1071 57.8426 39.5751 58.3046 39.9111 58.9046C40.2591 58.3526 40.7331 57.9026 41.3331 57.5546C41.9331 57.2066 42.5871 57.0326 43.2951 57.0326ZM59.0017 62.0006C59.0017 62.2886 58.9837 62.5886 58.9477 62.9006H51.9817C52.0297 63.5246 52.2277 64.0046 52.5757 64.3406C52.9357 64.6646 53.3737 64.8266 53.8897 64.8266C54.6577 64.8266 55.1917 64.5026 55.4917 63.8546H58.7677C58.5997 64.5146 58.2937 65.1086 57.8497 65.6366C57.4177 66.1646 56.8717 66.5786 56.2117 66.8786C55.5517 67.1786 54.8137 67.3286 53.9977 67.3286C53.0137 67.3286 52.1377 67.1186 51.3697 66.6986C50.6017 66.2786 50.0017 65.6786 49.5697 64.8986C49.1377 64.1186 48.9217 63.2066 48.9217 62.1626C48.9217 61.1186 49.1317 60.2066 49.5517 59.4266C49.9837 58.6466 50.5837 58.0466 51.3517 57.6266C52.1197 57.2066 53.0017 56.9966 53.9977 56.9966C54.9697 56.9966 55.8337 57.2006 56.5897 57.6086C57.3457 58.0166 57.9337 58.5986 58.3537 59.3546C58.7857 60.1106 59.0017 60.9926 59.0017 62.0006ZM55.8517 61.1906C55.8517 60.6626 55.6717 60.2426 55.3117 59.9306C54.9517 59.6186 54.5017 59.4626 53.9617 59.4626C53.4457 59.4626 53.0077 59.6126 52.6477 59.9126C52.2997 60.2126 52.0837 60.6386 51.9997 61.1906H55.8517Z" fill="white"/>
<path fill-rule="evenodd" clip-rule="evenodd" d="M31.0851 0.361335C31.7221 -0.120536 32.6017 -0.120436 33.2386 0.361579L49.331 12.5403C49.7768 12.8777 50.0387 13.4044 50.0387 13.9633V41.0458C50.0387 42.0314 49.2397 42.8304 48.2541 42.8304H37.445C36.4593 42.8304 35.6604 42.0314 35.6604 41.0458V27.7136H28.6554V41.0458C28.6554 42.0314 27.8564 42.8304 26.8708 42.8304H16.0617C15.0761 42.8304 14.2771 42.0314 14.2771 41.0458V13.9633C14.2771 13.4042 14.5392 12.8774 14.9851 12.5401L31.0851 0.361335ZM17.8463 14.8511V39.2612H25.0862V25.929C25.0862 24.9434 25.8852 24.1444 26.8708 24.1444H37.445C38.4306 24.1444 39.2296 24.9434 39.2296 25.929V39.2612H46.4695V14.8508L32.1614 4.02246L17.8463 14.8511Z" fill="white"/>
</svg>
