<svg width="65" height="79" viewBox="0 0 65 79" fill="none" xmlns="http://www.w3.org/2000/svg">
<path d="M16.7961 54.5486V67.1846H13.7181V61.9826H8.93011V67.1846H5.85211V54.5486H8.93011V59.4986H13.7181V54.5486H16.7961ZM23.5901 67.3286C22.6061 67.3286 21.7181 67.1186 20.9261 66.6986C20.1461 66.2786 19.5281 65.6786 19.0721 64.8986C18.6281 64.1186 18.4061 63.2066 18.4061 62.1626C18.4061 61.1306 18.6341 60.2246 19.0901 59.4446C19.5461 58.6526 20.1701 58.0466 20.9621 57.6266C21.7541 57.2066 22.6421 56.9966 23.6261 56.9966C24.6101 56.9966 25.4981 57.2066 26.2901 57.6266C27.0821 58.0466 27.7061 58.6526 28.1621 59.4446C28.6181 60.2246 28.8461 61.1306 28.8461 62.1626C28.8461 63.1946 28.6121 64.1066 28.1441 64.8986C27.6881 65.6786 27.0581 66.2786 26.2541 66.6986C25.4621 67.1186 24.5741 67.3286 23.5901 67.3286ZM23.5901 64.6646C24.1781 64.6646 24.6761 64.4486 25.0841 64.0166C25.5041 63.5846 25.7141 62.9666 25.7141 62.1626C25.7141 61.3586 25.5101 60.7406 25.1021 60.3086C24.7061 59.8766 24.2141 59.6606 23.6261 59.6606C23.0261 59.6606 22.5281 59.8766 22.1321 60.3086C21.7361 60.7286 21.5381 61.3466 21.5381 62.1626C21.5381 62.9666 21.7301 63.5846 22.1141 64.0166C22.5101 64.4486 23.0021 64.6646 23.5901 64.6646ZM43.2951 57.0326C44.5431 57.0326 45.5331 57.4106 46.2651 58.1666C47.0091 58.9226 47.3811 59.9726 47.3811 61.3166V67.1846H44.3211V61.7306C44.3211 61.0826 44.1471 60.5846 43.7991 60.2366C43.4631 59.8766 42.9951 59.6966 42.3951 59.6966C41.7951 59.6966 41.3211 59.8766 40.9731 60.2366C40.6371 60.5846 40.4691 61.0826 40.4691 61.7306V67.1846H37.4091V61.7306C37.4091 61.0826 37.2351 60.5846 36.8871 60.2366C36.5511 59.8766 36.0831 59.6966 35.4831 59.6966C34.8831 59.6966 34.4091 59.8766 34.0611 60.2366C33.7251 60.5846 33.5571 61.0826 33.5571 61.7306V67.1846H30.4791V57.1406H33.5571V58.4006C33.8691 57.9806 34.2771 57.6506 34.7811 57.4106C35.2851 57.1586 35.8551 57.0326 36.4911 57.0326C37.2471 57.0326 37.9191 57.1946 38.5071 57.5186C39.1071 57.8426 39.5751 58.3046 39.9111 58.9046C40.2591 58.3526 40.7331 57.9026 41.3331 57.5546C41.9331 57.2066 42.5871 57.0326 43.2951 57.0326ZM59.0017 62.0006C59.0017 62.2886 58.9837 62.5886 58.9477 62.9006H51.9817C52.0297 63.5246 52.2277 64.0046 52.5757 64.3406C52.9357 64.6646 53.3737 64.8266 53.8897 64.8266C54.6577 64.8266 55.1917 64.5026 55.4917 63.8546H58.7677C58.5997 64.5146 58.2937 65.1086 57.8497 65.6366C57.4177 66.1646 56.8717 66.5786 56.2117 66.8786C55.5517 67.1786 54.8137 67.3286 53.9977 67.3286C53.0137 67.3286 52.1377 67.1186 51.3697 66.6986C50.6017 66.2786 50.0017 65.6786 49.5697 64.8986C49.1377 64.1186 48.9217 63.2066 48.9217 62.1626C48.9217 61.1186 49.1317 60.2066 49.5517 59.4266C49.9837 58.6466 50.5837 58.0466 51.3517 57.6266C52.1197 57.2066 53.0017 56.9966 53.9977 56.9966C54.9697 56.9966 55.8337 57.2006 56.5897 57.6086C57.3457 58.0166 57.9337 58.5986 58.3537 59.3546C58.7857 60.1106 59.0017 60.9926 59.0017 62.0006ZM55.8517 61.1906C55.8517 60.6626 55.6717 60.2426 55.3117 59.9306C54.9517 59.6186 54.5017 59.4626 53.9617 59.4626C53.4457 59.4626 53.0077 59.6126 52.6477 59.9126C52.2997 60.2126 52.0837 60.6386 51.9997 61.1906H55.8517Z" fill="white"/>
<path fill-rule="evenodd" clip-rule="evenodd" d="M31.0851 0.361335C31.7221 -0.120536 32.6017 -0.120436 33.2386 0.361579L49.331 12.5403C49.7768 12.8777 50.0387 13.4044 50.0387 13.9633V41.0458C50.0387 42.0314 49.2397 42.8304 48.2541 42.8304H37.445C36.4593 42.8304 35.6604 42.0314 35.6604 41.0458V27.7136H28.6554V41.0458C28.6554 42.0314 27.8564 42.8304 26.8708 42.8304H16.0617C15.0761 42.8304 14.2771 42.0314 14.2771 41.0458V13.9633C14.2771 13.4042 14.5392 12.8774 14.9851 12.5401L31.0851 0.361335ZM17.8463 14.8511V39.2612H25.0862V25.929C25.0862 24.9434 25.8852 24.1444 26.8708 24.1444H37.445C38.4306 24.1444 39.2296 24.9434 39.2296 25.929V39.2612H46.4695V14.8508L32.1614 4.02246L17.8463 14.8511Z" fill="white"/>
</svg>
