<svg width="121" height="78" viewBox="0 0 121 78" fill="none" xmlns="http://www.w3.org/2000/svg">
<path fill-rule="evenodd" clip-rule="evenodd" d="M47.1043 4.09266V37.4083L57.4399 27.68C58.0871 27.071 58.9425 26.7316 59.8314 26.7316C60.7202 26.7316 61.5755 27.0707 62.2227 27.6798L72.5653 37.4327L72.5586 4.09266H47.1043ZM47.0356 0.523454C46.5773 0.522028 46.1235 0.610959 45.7001 0.78469C45.275 0.959091 44.8885 1.21574 44.5627 1.54008C44.237 1.86425 43.9786 2.24959 43.8022 2.67408C43.6257 3.09873 43.5351 3.55378 43.5351 4.01307C43.5351 4.01306 43.5351 4.01308 43.5351 4.01307V41.5388C43.5351 42.2508 43.9583 42.8946 44.6119 43.177C45.2655 43.4594 46.0244 43.3263 46.5429 42.8383L59.8314 30.3306L73.1264 42.8676C73.6447 43.3564 74.4039 43.4901 75.058 43.2078C75.712 42.9255 76.1355 42.2813 76.1354 41.5689L76.1277 4.01309C76.1277 4.01296 76.1277 4.01321 76.1277 4.01309C76.1277 3.55342 76.0368 3.09816 75.8606 2.67408C75.6842 2.24959 75.4257 1.86425 75.1001 1.54008C74.7743 1.21574 74.3878 0.959091 73.9627 0.78469C73.5394 0.610995 73.0857 0.522028 72.6273 0.523454H72.6305V2.30806L72.6225 0.523472C72.6241 0.523465 72.6257 0.523459 72.6273 0.523454" fill="white"/>
<path d="M16.2309 59.4433C16.9629 59.5993 17.5509 59.9653 17.9949 60.5413C18.4389 61.1053 18.6609 61.7533 18.6609 62.4853C18.6609 63.5413 18.2889 64.3813 17.5449 65.0053C16.8129 65.6173 15.7869 65.9233 14.4669 65.9233H8.58087V53.2873H14.2689C15.5529 53.2873 16.5549 53.5813 17.2749 54.1693C18.0069 54.7573 18.3729 55.5553 18.3729 56.5633C18.3729 57.3073 18.1749 57.9253 17.7789 58.4173C17.3949 58.9093 16.8789 59.2513 16.2309 59.4433ZM11.6589 58.3993H13.6749C14.1789 58.3993 14.5629 58.2913 14.8269 58.0753C15.1029 57.8473 15.2409 57.5173 15.2409 57.0853C15.2409 56.6533 15.1029 56.3233 14.8269 56.0953C14.5629 55.8673 14.1789 55.7533 13.6749 55.7533H11.6589V58.3993ZM13.9269 63.4393C14.4429 63.4393 14.8389 63.3253 15.1149 63.0973C15.4029 62.8573 15.5469 62.5153 15.5469 62.0713C15.5469 61.6273 15.3969 61.2793 15.0969 61.0273C14.8089 60.7753 14.4069 60.6493 13.8909 60.6493H11.6589V63.4393H13.9269ZM25.0181 66.0673C24.0341 66.0673 23.1461 65.8573 22.3541 65.4373C21.5741 65.0173 20.9561 64.4173 20.5001 63.6373C20.0561 62.8573 19.8341 61.9453 19.8341 60.9013C19.8341 59.8693 20.0621 58.9633 20.5181 58.1833C20.9741 57.3913 21.5981 56.7853 22.3901 56.3653C23.1821 55.9453 24.0701 55.7353 25.0541 55.7353C26.0381 55.7353 26.9261 55.9453 27.7181 56.3653C28.5101 56.7853 29.1341 57.3913 29.5901 58.1833C30.0461 58.9633 30.2741 59.8693 30.2741 60.9013C30.2741 61.9333 30.0401 62.8453 29.5721 63.6373C29.1161 64.4173 28.4861 65.0173 27.6821 65.4373C26.8901 65.8573 26.0021 66.0673 25.0181 66.0673ZM25.0181 63.4033C25.6061 63.4033 26.1041 63.1873 26.5121 62.7553C26.9321 62.3233 27.1421 61.7053 27.1421 60.9013C27.1421 60.0973 26.9381 59.4793 26.5301 59.0473C26.1341 58.6153 25.6421 58.3993 25.0541 58.3993C24.4541 58.3993 23.9561 58.6153 23.5601 59.0473C23.1641 59.4673 22.9661 60.0853 22.9661 60.9013C22.9661 61.7053 23.1581 62.3233 23.5421 62.7553C23.9381 63.1873 24.4301 63.4033 25.0181 63.4033ZM36.479 66.0673C35.495 66.0673 34.607 65.8573 33.815 65.4373C33.035 65.0173 32.417 64.4173 31.961 63.6373C31.517 62.8573 31.295 61.9453 31.295 60.9013C31.295 59.8693 31.523 58.9633 31.979 58.1833C32.435 57.3913 33.059 56.7853 33.851 56.3653C34.643 55.9453 35.531 55.7353 36.515 55.7353C37.499 55.7353 38.387 55.9453 39.179 56.3653C39.971 56.7853 40.595 57.3913 41.051 58.1833C41.507 58.9633 41.735 59.8693 41.735 60.9013C41.735 61.9333 41.501 62.8453 41.033 63.6373C40.577 64.4173 39.947 65.0173 39.143 65.4373C38.351 65.8573 37.463 66.0673 36.479 66.0673ZM36.479 63.4033C37.067 63.4033 37.565 63.1873 37.973 62.7553C38.393 62.3233 38.603 61.7053 38.603 60.9013C38.603 60.0973 38.399 59.4793 37.991 59.0473C37.595 58.6153 37.103 58.3993 36.515 58.3993C35.915 58.3993 35.417 58.6153 35.021 59.0473C34.625 59.4673 34.427 60.0853 34.427 60.9013C34.427 61.7053 34.619 62.3233 35.003 62.7553C35.399 63.1873 35.891 63.4033 36.479 63.4033ZM49.506 65.9233L46.446 61.7113V65.9233H43.368V52.6033H46.446V59.9653L49.488 55.8793H53.286L49.11 60.9193L53.322 65.9233H49.506ZM67.3109 55.7713C68.5589 55.7713 69.5489 56.1493 70.2809 56.9053C71.0249 57.6613 71.3969 58.7113 71.3969 60.0553V65.9233H68.3369V60.4693C68.3369 59.8213 68.1629 59.3233 67.8149 58.9753C67.4789 58.6153 67.0109 58.4353 66.4109 58.4353C65.8109 58.4353 65.3369 58.6153 64.9889 58.9753C64.6529 59.3233 64.4849 59.8213 64.4849 60.4693V65.9233H61.4249V60.4693C61.4249 59.8213 61.2509 59.3233 60.9029 58.9753C60.5669 58.6153 60.0989 58.4353 59.4989 58.4353C58.8989 58.4353 58.4249 58.6153 58.0769 58.9753C57.7409 59.3233 57.5729 59.8213 57.5729 60.4693V65.9233H54.4949V55.8793H57.5729V57.1393C57.8849 56.7193 58.2929 56.3893 58.7969 56.1493C59.3009 55.8973 59.8709 55.7713 60.5069 55.7713C61.2629 55.7713 61.9349 55.9333 62.5229 56.2573C63.1229 56.5813 63.5909 57.0433 63.9269 57.6433C64.2749 57.0913 64.7489 56.6413 65.3489 56.2933C65.9489 55.9453 66.6029 55.7713 67.3109 55.7713ZM72.9376 60.8833C72.9376 59.8513 73.1296 58.9453 73.5136 58.1653C73.9096 57.3853 74.4436 56.7853 75.1156 56.3653C75.7876 55.9453 76.5376 55.7353 77.3656 55.7353C78.0736 55.7353 78.6916 55.8793 79.2196 56.1673C79.7596 56.4553 80.1736 56.8333 80.4616 57.3013V55.8793H83.5396V65.9233H80.4616V64.5013C80.1616 64.9693 79.7416 65.3473 79.2016 65.6353C78.6736 65.9233 78.0556 66.0673 77.3476 66.0673C76.5316 66.0673 75.7876 65.8573 75.1156 65.4373C74.4436 65.0053 73.9096 64.3993 73.5136 63.6193C73.1296 62.8273 72.9376 61.9153 72.9376 60.8833ZM80.4616 60.9013C80.4616 60.1333 80.2456 59.5273 79.8136 59.0833C79.3936 58.6393 78.8776 58.4173 78.2656 58.4173C77.6536 58.4173 77.1316 58.6393 76.6996 59.0833C76.2796 59.5153 76.0696 60.1153 76.0696 60.8833C76.0696 61.6513 76.2796 62.2633 76.6996 62.7193C77.1316 63.1633 77.6536 63.3853 78.2656 63.3853C78.8776 63.3853 79.3936 63.1633 79.8136 62.7193C80.2456 62.2753 80.4616 61.6693 80.4616 60.9013ZM88.8444 57.5533C89.2044 57.0013 89.6544 56.5693 90.1944 56.2573C90.7344 55.9333 91.3344 55.7713 91.9944 55.7713V59.0293H91.1484C90.3804 59.0293 89.8044 59.1973 89.4204 59.5333C89.0364 59.8573 88.8444 60.4333 88.8444 61.2613V65.9233H85.7664V55.8793H88.8444V57.5533ZM99.6036 65.9233L96.5436 61.7113V65.9233H93.4656V52.6033H96.5436V59.9653L99.5856 55.8793H103.384L99.2076 60.9193L103.42 65.9233H99.6036ZM108.679 66.0673C107.803 66.0673 107.023 65.9173 106.339 65.6173C105.655 65.3173 105.115 64.9093 104.719 64.3933C104.323 63.8653 104.101 63.2773 104.053 62.6293H107.095C107.131 62.9773 107.293 63.2593 107.581 63.4753C107.869 63.6913 108.223 63.7993 108.643 63.7993C109.027 63.7993 109.321 63.7273 109.525 63.5833C109.741 63.4273 109.849 63.2293 109.849 62.9893C109.849 62.7013 109.699 62.4913 109.399 62.3593C109.099 62.2153 108.613 62.0593 107.941 61.8913C107.221 61.7233 106.621 61.5493 106.141 61.3693C105.661 61.1773 105.247 60.8833 104.899 60.4873C104.551 60.0793 104.377 59.5333 104.377 58.8493C104.377 58.2733 104.533 57.7513 104.845 57.2833C105.169 56.8033 105.637 56.4253 106.249 56.1493C106.873 55.8733 107.611 55.7353 108.463 55.7353C109.723 55.7353 110.713 56.0473 111.433 56.6713C112.165 57.2953 112.585 58.1233 112.693 59.1553H109.849C109.801 58.8073 109.645 58.5313 109.381 58.3273C109.129 58.1233 108.793 58.0213 108.373 58.0213C108.013 58.0213 107.737 58.0933 107.545 58.2373C107.353 58.3693 107.257 58.5553 107.257 58.7953C107.257 59.0833 107.407 59.2993 107.707 59.4433C108.019 59.5873 108.499 59.7313 109.147 59.8753C109.891 60.0673 110.497 60.2593 110.965 60.4513C111.433 60.6313 111.841 60.9313 112.189 61.3513C112.549 61.7593 112.735 62.3113 112.747 63.0073C112.747 63.5953 112.579 64.1233 112.243 64.5913C111.919 65.0473 111.445 65.4073 110.821 65.6713C110.209 65.9353 109.495 66.0673 108.679 66.0673Z" fill="white"/>
</svg>
