<svg width="27" height="27" viewBox="0 0 27 27" fill="none" xmlns="http://www.w3.org/2000/svg">
<g clip-path="url(#clip0_10_19011)">
<path d="M13.5 0C10.8299 0 8.21986 0.791776 5.99979 2.27518C3.77973 3.75857 2.04939 5.86698 1.02761 8.33378C0.00582878 10.8006 -0.261488 13.515 0.259412 16.1337C0.780312 18.7525 2.06605 21.1579 3.95406 23.0459C5.84207 24.9339 8.24754 26.2197 10.8663 26.7406C13.485 27.2615 16.1994 26.9942 18.6662 25.9724C21.133 24.9506 23.2414 23.2203 24.7248 21.0002C26.2082 18.7801 27 16.17 27 13.5C27 9.91957 25.5777 6.4858 23.0459 3.95405C20.5142 1.42231 17.0804 0 13.5 0ZM13.5 25.442C11.1401 25.4425 8.83296 24.7432 6.87048 23.4324C4.90801 22.1217 3.37831 20.2584 2.47484 18.0783C1.57137 15.8981 1.3347 13.499 1.79479 11.1844C2.25487 8.86972 3.39105 6.74349 5.0596 5.07458C6.72814 3.40566 8.85414 2.26901 11.1687 1.80842C13.4833 1.34783 15.8824 1.58398 18.0628 2.48697C20.2431 3.38996 22.1067 4.91924 23.4179 6.88143C24.729 8.84361 25.4289 11.1506 25.4289 13.5105C25.4261 16.6727 24.1682 19.7044 21.9315 21.9397C19.6947 24.1749 16.6622 25.4308 13.5 25.4315V25.442Z" fill="black"/>
<path d="M14.9112 6.77227C14.9374 7.55914 14.3604 8.1886 13.4424 8.1886C13.2569 8.19118 13.0728 8.15614 12.9012 8.08554C12.7297 8.01494 12.5742 7.91025 12.4443 7.77785C12.3143 7.64545 12.2126 7.48807 12.1452 7.31523C12.0778 7.14238 12.0462 6.95769 12.0522 6.77227C12.0472 6.58145 12.081 6.39157 12.1518 6.21427C12.2225 6.03696 12.3285 5.87593 12.4635 5.74095C12.5985 5.60597 12.7596 5.4999 12.9369 5.42919C13.1142 5.35848 13.304 5.32463 13.4948 5.32968C13.6849 5.32284 13.8744 5.35566 14.051 5.42609C14.2277 5.49652 14.3878 5.60298 14.521 5.73871C14.6543 5.87443 14.7578 6.03645 14.825 6.21439C14.8921 6.39234 14.9215 6.58235 14.9112 6.77227ZM12.3408 23.0342V10.3394H14.6489V23.0342H12.3408Z" fill="black"/>
</g>
<defs>
<clipPath id="clip0_10_19011">
<rect width="27" height="27" fill="white"/>
</clipPath>
</defs>
</svg>
