<svg width="19" height="24" viewBox="0 0 19 24" fill="none" xmlns="http://www.w3.org/2000/svg">
<path fill-rule="evenodd" clip-rule="evenodd" d="M2 2.00001V20.6684L7.79154 15.2171C8.1542 14.8759 8.63352 14.6857 9.1316 14.6857C9.62962 14.6857 10.1089 14.8758 10.4716 15.217L16.267 20.6821L16.2633 2.00001H2ZM1.96149 9.46279e-06C1.70469 -0.000789657 1.45039 0.0490423 1.21312 0.146393C0.974943 0.244118 0.758335 0.387929 0.57578 0.569672C0.393319 0.751322 0.248482 0.967246 0.149645 1.20511C0.0507729 1.44306 -1.31128e-06 1.69805 0 1.95541C0 1.95541 0 1.95542 0 1.95541V22.9829C0 23.3819 0.237143 23.7427 0.603383 23.9009C0.969623 24.0591 1.39488 23.9845 1.68539 23.7111L9.1316 16.7024L16.5815 23.7275C16.8719 24.0014 17.2973 24.0763 17.6638 23.9181C18.0303 23.7599 18.2676 23.399 18.2675 22.9998L18.2632 1.95542C18.2632 1.95535 18.2632 1.95549 18.2632 1.95542C18.2632 1.69785 18.2123 1.44275 18.1136 1.20511C18.0147 0.967246 17.8699 0.751322 17.6874 0.569672C17.5049 0.387929 17.2883 0.244118 17.0501 0.146393C16.8129 0.0490627 16.5586 -0.000789895 16.3018 9.46279e-06H16.3036V1.00001L16.2991 1.94764e-05C16.3 1.55425e-05 16.3009 1.22046e-05 16.3018 9.46279e-06" fill="#C4C4C4"/>
</svg>
