<svg width="80" height="80" viewBox="0 0 80 80" fill="none" xmlns="http://www.w3.org/2000/svg">
<mask id="mask0_10_19727" style="mask-type:luminance" maskUnits="userSpaceOnUse" x="27" y="30" width="26" height="20">
<path d="M29.4402 37.24L27.2002 39.5201L36.9603 49.1201C37.26 49.4181 37.6655 49.5854 38.0882 49.5854C38.5109 49.5854 38.9164 49.4181 39.2162 49.1201L52.8162 32.64L50.5522 30.3921L38.0802 45.744L29.4402 37.24Z" fill="white"/>
</mask>
<g mask="url(#mask0_10_19727)">
<mask id="mask1_10_19727" style="mask-type:luminance" maskUnits="userSpaceOnUse" x="-536" y="-229" width="845" height="999">
<path d="M308.8 -228.8H-536V769.6H308.8V-228.8Z" fill="white"/>
</mask>
<g mask="url(#mask1_10_19727)">
<path d="M60.8002 22.4001H19.2002V57.6001H60.8002V22.4001Z" fill="#34A853"/>
</g>
</g>
<mask id="mask2_10_19727" style="mask-type:luminance" maskUnits="userSpaceOnUse" x="8" y="7" width="64" height="65">
<path d="M40 68.7761C34.3039 68.7761 28.7357 67.087 23.9996 63.9224C19.2635 60.7578 15.5721 56.2599 13.3923 50.9974C11.2125 45.7349 10.6422 39.9442 11.7534 34.3576C12.8647 28.7709 15.6076 23.6392 19.6354 19.6115C23.6631 15.5837 28.7948 12.8408 34.3814 11.7295C39.9681 10.6183 45.7588 11.1886 51.0213 13.3684C56.2838 15.5482 60.7818 19.2396 63.9464 23.9757C67.111 28.7119 68.8 34.28 68.8 39.9761C68.8 47.6143 65.7657 54.9397 60.3647 60.3408C54.9636 65.7418 47.6382 68.7761 40 68.7761ZM40 71.9761C46.329 71.9761 52.5159 70.0993 57.7782 66.5831C63.0406 63.0669 67.1422 58.0692 69.5642 52.222C71.9862 46.3748 72.6199 39.9406 71.3852 33.7332C70.1504 27.5259 67.1027 21.824 62.6274 17.3487C58.1522 12.8734 52.4503 9.82568 46.2429 8.59096C40.0355 7.35623 33.6013 7.98995 27.7541 10.412C21.9069 12.834 16.9092 16.9355 13.393 22.1979C9.87676 27.4603 8 33.6471 8 39.9761C8 48.463 11.3714 56.6024 17.3726 62.6036C23.3737 68.6047 31.5131 71.9761 40 71.9761Z" fill="white"/>
</mask>
<g mask="url(#mask2_10_19727)">
<mask id="mask3_10_19727" style="mask-type:luminance" maskUnits="userSpaceOnUse" x="-536" y="-229" width="845" height="999">
<path d="M308.8 -228.8H-536V769.6H308.8V-228.8Z" fill="white"/>
</mask>
<g mask="url(#mask3_10_19727)">
<path d="M80 0.000244141H0V80.0002H80V0.000244141Z" fill="#34A853"/>
</g>
</g>
</svg>
