<svg width="21" height="24" viewBox="0 0 21 24" fill="none" xmlns="http://www.w3.org/2000/svg">
<g clip-path="url(#clip0_10_17467)">
<path fill-rule="evenodd" clip-rule="evenodd" d="M2.93549 15.493C2.87385 15.4933 2.81277 15.481 2.75578 15.4568C2.69879 15.4326 2.647 15.3971 2.60341 15.3523C2.55982 15.3074 2.52529 15.2542 2.5018 15.1956C2.47831 15.137 2.46634 15.0741 2.46656 15.0107V0.482323C2.46656 0.3544 2.51596 0.231722 2.6039 0.141267C2.69184 0.0508117 2.81113 0 2.93549 0C3.05986 0 3.17911 0.0508117 3.26705 0.141267C3.35499 0.231722 3.40443 0.3544 3.40443 0.482323V15.0107C3.40465 15.0741 3.39264 15.137 3.36915 15.1956C3.34566 15.2542 3.31113 15.3074 3.26754 15.3523C3.22395 15.3971 3.1722 15.4326 3.11521 15.4568C3.05821 15.481 2.99714 15.4933 2.93549 15.493Z" fill="#212121"/>
<path fill-rule="evenodd" clip-rule="evenodd" d="M2.93549 24.0002C2.87385 24.0004 2.81277 23.9881 2.75578 23.9639C2.69879 23.9398 2.647 23.9043 2.60341 23.8594C2.55982 23.8146 2.52529 23.7613 2.5018 23.7027C2.47831 23.6441 2.46634 23.5812 2.46656 23.5178V20.0282C2.46656 19.9003 2.51596 19.7776 2.6039 19.6872C2.69184 19.5967 2.81113 19.5459 2.93549 19.5459C3.05986 19.5459 3.17911 19.5967 3.26705 19.6872C3.35499 19.7776 3.40443 19.9003 3.40443 20.0282V23.5178C3.40465 23.5812 3.39264 23.6441 3.36915 23.7027C3.34566 23.7613 3.31113 23.8146 3.26754 23.8594C3.22395 23.9043 3.1722 23.9398 3.11521 23.9639C3.05821 23.9881 2.99714 24.0004 2.93549 24.0002Z" fill="#212121"/>
<path fill-rule="evenodd" clip-rule="evenodd" d="M5.34513 20.5105H0.467271C0.405769 20.5105 0.344888 20.498 0.288089 20.4738C0.231289 20.4495 0.179695 20.414 0.136284 20.3692C0.0928735 20.3243 0.0584654 20.2711 0.0350817 20.2126C0.0116981 20.1541 -0.000216668 20.0915 2.9825e-06 20.0282V15.0126C-0.000216668 14.9494 0.0116981 14.8867 0.0350817 14.8281C0.0584654 14.7696 0.0928735 14.7164 0.136284 14.6716C0.179695 14.6268 0.231289 14.5913 0.288089 14.567C0.344888 14.5428 0.405769 14.5303 0.467271 14.5303H5.34513C5.4695 14.5303 5.58879 14.5811 5.67673 14.6715C5.76467 14.762 5.81407 14.8847 5.81407 15.0126V20.0282C5.81363 20.156 5.76408 20.2784 5.67624 20.3687C5.58839 20.4591 5.46936 20.5101 5.34513 20.5105ZM0.93621 19.5459H4.87619V15.4949H0.93621V19.5459Z" fill="#212121"/>
<path fill-rule="evenodd" clip-rule="evenodd" d="M18.1212 13.6839C18.0596 13.6841 17.9985 13.6718 17.9415 13.6476C17.8845 13.6234 17.8327 13.5879 17.7892 13.5431C17.7456 13.4983 17.711 13.445 17.6875 13.3864C17.6641 13.3278 17.6521 13.265 17.6523 13.2015V0.482323C17.6523 0.3544 17.7017 0.231722 17.7896 0.141267C17.8776 0.0508117 17.9968 0 18.1212 0C18.2456 0 18.3649 0.0508117 18.4528 0.141267C18.5408 0.231722 18.5901 0.3544 18.5901 0.482323V13.2015C18.5904 13.265 18.5784 13.3278 18.5549 13.3864C18.5315 13.445 18.4969 13.4983 18.4533 13.5431C18.4097 13.5879 18.3579 13.6234 18.301 13.6476C18.244 13.6718 18.1828 13.6841 18.1212 13.6839Z" fill="#212121"/>
<path fill-rule="evenodd" clip-rule="evenodd" d="M18.1212 24C18.0596 24.0003 17.9985 23.988 17.9415 23.9638C17.8845 23.9396 17.8327 23.9041 17.7892 23.8593C17.7456 23.8144 17.711 23.7612 17.6875 23.7025C17.6641 23.6439 17.6521 23.5811 17.6523 23.5177V18.2206C17.6523 18.0927 17.7017 17.97 17.7896 17.8795C17.8776 17.7891 17.9968 17.7383 18.1212 17.7383C18.2456 17.7383 18.3649 17.7891 18.4528 17.8795C18.5408 17.97 18.5901 18.0927 18.5901 18.2206V23.5177C18.5904 23.5811 18.5784 23.6439 18.5549 23.7025C18.5315 23.7612 18.4969 23.8144 18.4533 23.8593C18.4097 23.9041 18.3579 23.9396 18.301 23.9638C18.244 23.988 18.1828 24.0003 18.1212 24Z" fill="#212121"/>
<path fill-rule="evenodd" clip-rule="evenodd" d="M20.5294 18.7029H15.6532C15.5916 18.7029 15.5306 18.6904 15.4738 18.6662C15.4169 18.6419 15.3652 18.6064 15.3216 18.5616C15.2781 18.5168 15.2436 18.4637 15.22 18.4051C15.1965 18.3466 15.1843 18.2839 15.1843 18.2206V13.2033C15.1843 13.14 15.1964 13.0774 15.22 13.0189C15.2436 12.9605 15.2781 12.9074 15.3217 12.8628C15.3653 12.8181 15.417 12.7828 15.4739 12.7587C15.5308 12.7347 15.5917 12.7224 15.6532 12.7227H20.5294C20.5909 12.7224 20.6519 12.7347 20.7088 12.7587C20.7656 12.7828 20.8173 12.8181 20.8609 12.8628C20.9045 12.9074 20.939 12.9605 20.9626 13.0189C20.9862 13.0774 20.9984 13.14 20.9984 13.2033V18.2206C20.9979 18.3484 20.9483 18.4708 20.8605 18.5611C20.7726 18.6515 20.6536 18.7025 20.5294 18.7029ZM16.1205 17.7382H20.0588V13.6856H16.1205V17.7382Z" fill="#212121"/>
<path fill-rule="evenodd" clip-rule="evenodd" d="M10.4682 23.9999C10.3438 23.9999 10.2246 23.9491 10.1366 23.8586C10.0487 23.7682 9.99927 23.6455 9.99927 23.5175V9.995C9.99927 9.86707 10.0487 9.74442 10.1366 9.65396C10.2246 9.56351 10.3438 9.5127 10.4682 9.5127C10.5926 9.5127 10.7118 9.56351 10.7998 9.65396C10.8877 9.74442 10.9371 9.86707 10.9371 9.995V23.5175C10.9371 23.6455 10.8877 23.7682 10.7998 23.8586C10.7118 23.9491 10.5926 23.9999 10.4682 23.9999Z" fill="#212121"/>
<path fill-rule="evenodd" clip-rule="evenodd" d="M10.4682 5.46015C10.3438 5.46015 10.2246 5.40934 10.1366 5.31889C10.0487 5.22843 9.99927 5.10573 9.99927 4.97781V0.482324C9.99927 0.3544 10.0487 0.231722 10.1366 0.141267C10.2246 0.0508118 10.3438 0 10.4682 0C10.5926 0 10.7118 0.0508118 10.7998 0.141267C10.8877 0.231722 10.9371 0.3544 10.9371 0.482324V4.97781C10.9371 5.10573 10.8877 5.22843 10.7998 5.31889C10.7118 5.40934 10.5926 5.46015 10.4682 5.46015Z" fill="#212121"/>
<path fill-rule="evenodd" clip-rule="evenodd" d="M12.9364 10.4859H8.05854C7.9969 10.4861 7.93582 10.4738 7.87883 10.4496C7.82184 10.4255 7.77004 10.39 7.72645 10.3451C7.68287 10.3003 7.64833 10.247 7.62484 10.1884C7.60136 10.1298 7.58938 10.0669 7.5896 10.0035V4.98623C7.58938 4.92283 7.60136 4.86 7.62484 4.80138C7.64833 4.74276 7.68287 4.68951 7.72645 4.64467C7.77004 4.59984 7.82184 4.56432 7.87883 4.54016C7.93582 4.516 7.9969 4.50368 8.05854 4.50391H12.9348C12.9964 4.50368 13.0574 4.516 13.1144 4.54016C13.1714 4.56432 13.2232 4.59984 13.2668 4.64467C13.3104 4.68951 13.3449 4.74276 13.3684 4.80138C13.3919 4.86 13.4038 4.92283 13.4036 4.98623V10.0018C13.4038 10.0653 13.3919 10.1282 13.3684 10.1869C13.345 10.2456 13.3105 10.299 13.2669 10.344C13.2233 10.389 13.1716 10.4247 13.1146 10.449C13.0576 10.4734 12.9965 10.4859 12.9348 10.4859H12.9364ZM8.52915 9.52119H12.4675V5.46858H8.52915V9.52119Z" fill="#212121"/>
</g>
<defs>
<clipPath id="clip0_10_17467">
<rect width="21" height="24" fill="white"/>
</clipPath>
</defs>
</svg>
