<svg width="43" height="43" viewBox="0 0 43 43" fill="none" xmlns="http://www.w3.org/2000/svg">
<path d="M12.8831 20.4474L10.9871 22.3723L19.245 30.5115C19.3706 30.6392 19.5205 30.7405 19.6857 30.8097C19.8509 30.8789 20.0283 30.9146 20.2074 30.9146C20.3865 30.9146 20.5639 30.8789 20.7291 30.8097C20.8944 30.7405 21.0442 30.6392 21.1699 30.5115L32.6648 16.5687L30.7399 14.6694L20.1849 27.653L12.8831 20.4474Z" fill="#FFC90C"/>
<path d="M21.4875 4.9873C18.2216 4.9873 15.029 5.95577 12.3136 7.77019C9.59808 9.58462 7.48161 12.1635 6.23181 15.1808C4.98201 18.1981 4.655 21.5182 5.29214 24.7213C5.92929 27.9245 7.50198 30.8667 9.8113 33.176C12.1206 35.4853 15.0629 37.058 18.266 37.6952C21.4692 38.3323 24.7892 38.0053 27.8065 36.7555C30.8238 35.5057 33.4027 33.3893 35.2172 30.6738C37.0316 27.9583 38 24.7658 38 21.4999C38 19.3314 37.5729 17.1842 36.7431 15.1808C35.9133 13.1774 34.6969 11.3571 33.1636 9.82372C31.6303 8.29039 29.8099 7.0741 27.8065 6.24427C25.8031 5.41443 23.6559 4.9873 21.4875 4.9873ZM21.4875 36.1068C18.6009 36.1074 15.7789 35.252 13.3785 33.6488C10.9781 32.0456 9.10708 29.7665 8.002 27.0998C6.89691 24.4332 6.60743 21.4987 7.17018 18.6675C7.73294 15.8363 9.12266 13.2356 11.1635 11.1943C13.2044 9.15295 15.8049 7.76266 18.6359 7.19928C21.467 6.63591 24.4015 6.92476 27.0684 8.02925C29.7353 9.13375 32.0148 11.0043 33.6186 13.4044C35.2223 15.8044 36.0783 18.6261 36.0783 21.5127C36.0749 25.3805 34.5363 29.0888 31.8004 31.8229C29.0645 34.5569 25.3553 36.0931 21.4875 36.0939V36.1068Z" fill="#FFC90C"/>
</svg>
